<svg xmlns="http://www.w3.org/2000/svg" xmlns:xlink="http://www.w3.org/1999/xlink" width="500" zoomAndPan="magnify" viewBox="0 0 375 374.999991" height="500" preserveAspectRatio="xMidYMid meet" version="1.0"><defs><clipPath id="2feca6ed61"><path d="M 52.921875 52.921875 L 322.171875 52.921875 L 322.171875 322.171875 L 52.921875 322.171875 Z M 52.921875 52.921875 " clip-rule="nonzero"/></clipPath></defs><g clip-path="url(#2feca6ed61)"><path fill="#1c3049" d="M 322.171875 187.546875 C 322.171875 261.902344 261.902344 322.171875 187.546875 322.171875 C 113.195312 322.171875 52.921875 261.902344 52.921875 187.546875 C 52.921875 113.195312 113.195312 52.921875 187.546875 52.921875 C 261.902344 52.921875 322.171875 113.195312 322.171875 187.546875 " fill-opacity="1" fill-rule="nonzero"/></g><path fill="#dfaa61" d="M 216.453125 125.0625 L 223.386719 131.996094 L 230.324219 125.0625 L 223.386719 118.125 Z M 223.386719 136.195312 C 222.925781 136.195312 222.484375 136.011719 222.15625 135.6875 L 212.761719 126.289062 C 212.082031 125.613281 212.082031 124.511719 212.761719 123.832031 L 222.15625 114.433594 C 222.839844 113.753906 223.9375 113.753906 224.617188 114.433594 L 234.011719 123.832031 C 234.691406 124.511719 234.691406 125.613281 234.011719 126.289062 L 224.617188 135.6875 C 224.292969 136.011719 223.847656 136.195312 223.386719 136.195312 " fill-opacity="1" fill-rule="nonzero"/><path fill="#dfaa61" d="M 161.613281 179.898438 L 168.550781 186.832031 L 175.488281 179.898438 L 168.550781 172.960938 Z M 168.550781 191.03125 C 168.089844 191.03125 167.648438 190.851562 167.320312 190.523438 L 157.925781 181.128906 C 157.601562 180.800781 157.414062 180.359375 157.414062 179.898438 C 157.414062 179.4375 157.601562 178.992188 157.925781 178.667969 L 167.320312 169.273438 C 168 168.59375 169.101562 168.59375 169.78125 169.273438 L 179.179688 178.667969 C 179.855469 179.347656 179.855469 180.449219 179.179688 181.128906 L 169.78125 190.523438 C 169.457031 190.851562 169.011719 191.03125 168.550781 191.03125 " fill-opacity="1" fill-rule="nonzero"/><path fill="#dfaa61" d="M 238.957031 234.78125 C 238.59375 234.78125 238.226562 234.667969 237.910156 234.433594 C 237.144531 233.855469 236.992188 232.765625 237.570312 231.996094 C 250.632812 214.640625 250.632812 186.394531 237.570312 169.035156 C 236.992188 168.269531 237.144531 167.179688 237.910156 166.601562 C 238.679688 166.023438 239.769531 166.175781 240.347656 166.945312 C 247.117188 175.941406 250.84375 187.863281 250.84375 200.515625 C 250.84375 213.171875 247.117188 225.09375 240.347656 234.089844 C 240.007812 234.542969 239.484375 234.78125 238.957031 234.78125 " fill-opacity="1" fill-rule="nonzero"/><path fill="#dfaa61" d="M 224.945312 234.78125 C 224.582031 234.78125 224.214844 234.667969 223.898438 234.433594 C 223.132812 233.855469 222.976562 232.765625 223.558594 231.996094 C 236.621094 214.640625 236.621094 186.394531 223.558594 169.035156 C 222.976562 168.269531 223.132812 167.179688 223.898438 166.601562 C 224.667969 166.023438 225.757812 166.175781 226.335938 166.945312 C 233.105469 175.941406 236.832031 187.863281 236.832031 200.515625 C 236.832031 213.171875 233.105469 225.09375 226.335938 234.089844 C 225.992188 234.542969 225.472656 234.78125 224.945312 234.78125 " fill-opacity="1" fill-rule="nonzero"/><path fill="#dfaa61" d="M 238.960938 169.726562 L 216.679688 169.726562 C 215.71875 169.726562 214.941406 168.949219 214.941406 167.992188 C 214.941406 167.027344 215.71875 166.25 216.679688 166.25 L 237.21875 166.25 L 237.21875 158.230469 L 216.679688 158.230469 C 215.71875 158.230469 214.941406 157.449219 214.941406 156.492188 C 214.941406 155.53125 215.71875 154.75 216.679688 154.75 L 238.960938 154.75 C 239.917969 154.75 240.699219 155.53125 240.699219 156.492188 L 240.699219 167.992188 C 240.699219 168.949219 239.917969 169.726562 238.960938 169.726562 " fill-opacity="1" fill-rule="nonzero"/><path fill="#dfaa61" d="M 127.730469 257.695312 L 237.21875 257.695312 L 237.21875 247.976562 L 127.730469 247.976562 Z M 238.960938 261.171875 L 125.992188 261.171875 C 125.03125 261.171875 124.253906 260.394531 124.253906 259.433594 L 124.253906 246.238281 C 124.253906 245.277344 125.03125 244.5 125.992188 244.5 L 238.960938 244.5 C 239.917969 244.5 240.699219 245.277344 240.699219 246.238281 L 240.699219 259.433594 C 240.699219 260.394531 239.917969 261.171875 238.960938 261.171875 " fill-opacity="1" fill-rule="nonzero"/><path fill="#dfaa61" d="M 238.960938 247.976562 L 159.136719 247.976562 C 158.175781 247.976562 157.398438 247.199219 157.398438 246.238281 L 157.398438 233.042969 C 157.398438 232.082031 158.175781 231.304688 159.136719 231.304688 L 176.28125 231.304688 C 177.238281 231.304688 178.015625 232.082031 178.015625 233.042969 C 178.015625 234.003906 177.238281 234.78125 176.28125 234.78125 L 160.875 234.78125 L 160.875 244.5 L 237.21875 244.5 L 237.21875 234.78125 L 185.054688 234.78125 C 184.09375 234.78125 183.316406 234.003906 183.316406 233.042969 C 183.316406 232.082031 184.09375 231.304688 185.054688 231.304688 L 238.960938 231.304688 C 239.917969 231.304688 240.699219 232.082031 240.699219 233.042969 L 240.699219 246.238281 C 240.699219 247.199219 239.917969 247.976562 238.960938 247.976562 " fill-opacity="1" fill-rule="nonzero"/><path fill="#dfaa61" d="M 183.785156 187.476562 C 183.324219 187.476562 182.878906 187.292969 182.554688 186.964844 L 161.484375 165.894531 C 161.160156 165.566406 160.976562 165.125 160.976562 164.664062 C 160.976562 164.203125 161.160156 163.761719 161.484375 163.433594 L 206.925781 117.992188 C 207.605469 117.316406 208.707031 117.316406 209.386719 117.992188 L 224.617188 133.226562 L 230.457031 139.066406 C 231.132812 139.746094 231.132812 140.847656 230.457031 141.523438 L 216.292969 155.6875 C 215.613281 156.367188 214.511719 156.367188 213.832031 155.6875 C 213.152344 155.007812 213.152344 153.90625 213.832031 153.230469 L 226.765625 140.296875 L 222.15625 135.6875 L 208.15625 121.683594 L 165.175781 164.664062 L 183.785156 183.277344 L 198.355469 168.707031 C 199.03125 168.027344 200.132812 168.027344 200.8125 168.707031 C 201.492188 169.386719 201.492188 170.488281 200.8125 171.167969 L 185.015625 186.964844 C 184.6875 187.292969 184.246094 187.476562 183.785156 187.476562 " fill-opacity="1" fill-rule="nonzero"/><path fill="#dfaa61" d="M 185.054688 247.976562 L 176.277344 247.976562 C 175.316406 247.976562 174.539062 247.199219 174.539062 246.238281 L 174.539062 222.765625 C 174.539062 221.804688 175.316406 221.027344 176.277344 221.027344 C 177.238281 221.027344 178.015625 221.804688 178.015625 222.765625 L 178.015625 244.5 L 183.316406 244.5 L 183.316406 215.664062 L 176.277344 215.664062 C 175.316406 215.664062 174.539062 214.882812 174.539062 213.925781 C 174.539062 212.964844 175.316406 212.183594 176.277344 212.183594 L 185.054688 212.183594 C 186.015625 212.183594 186.792969 212.964844 186.792969 213.925781 L 186.792969 246.238281 C 186.792969 247.199219 186.015625 247.976562 185.054688 247.976562 " fill-opacity="1" fill-rule="nonzero"/><path fill="#dfaa61" d="M 137.398438 221.027344 L 183.316406 221.027344 L 183.316406 215.664062 L 137.398438 215.664062 Z M 185.054688 224.503906 L 135.65625 224.503906 C 134.699219 224.503906 133.917969 223.726562 133.917969 222.765625 L 133.917969 213.925781 C 133.917969 212.964844 134.699219 212.183594 135.65625 212.183594 L 185.054688 212.183594 C 186.015625 212.183594 186.792969 212.964844 186.792969 213.925781 L 186.792969 222.765625 C 186.792969 223.726562 186.015625 224.503906 185.054688 224.503906 " fill-opacity="1" fill-rule="nonzero"/><path fill="#dfaa61" d="M 207.367188 153.035156 C 202.289062 153.035156 198.160156 157.164062 198.160156 162.242188 C 198.160156 167.316406 202.289062 171.449219 207.367188 171.449219 C 212.441406 171.449219 216.570312 167.316406 216.570312 162.242188 C 216.570312 157.164062 212.441406 153.035156 207.367188 153.035156 Z M 207.367188 174.925781 C 200.371094 174.925781 194.679688 169.234375 194.679688 162.242188 C 194.679688 155.246094 200.371094 149.554688 207.367188 149.554688 C 214.359375 149.554688 220.050781 155.246094 220.050781 162.242188 C 220.050781 169.234375 214.359375 174.925781 207.367188 174.925781 " fill-opacity="1" fill-rule="nonzero"/></svg>