<svg xmlns="http://www.w3.org/2000/svg" xmlns:xlink="http://www.w3.org/1999/xlink" width="500" zoomAndPan="magnify" viewBox="0 0 375 374.999991" height="500" preserveAspectRatio="xMidYMid meet" version="1.0"><defs><clipPath id="a8eea6f576"><path d="M 226 323 L 334 323 L 334 341.363281 L 226 341.363281 Z M 226 323 " clip-rule="nonzero"/></clipPath></defs><rect x="-37.5" width="450" fill="#ffffff" y="-37.499999" height="449.999989" fill-opacity="1"/><rect x="-37.5" width="450" fill="#ffffff" y="-37.499999" height="449.999989" fill-opacity="1"/><path fill="#232326" d="M 231.300781 179.613281 C 231.640625 179.945312 232.03125 180.199219 232.46875 180.378906 C 232.90625 180.558594 233.363281 180.648438 233.839844 180.648438 C 234.3125 180.648438 234.769531 180.558594 235.207031 180.378906 C 235.644531 180.199219 236.035156 179.945312 236.375 179.613281 L 255.621094 160.363281 C 254.820312 159.742188 254.058594 159.085938 253.328125 158.382812 C 252.601562 157.683594 251.910156 156.949219 251.257812 156.175781 C 250.609375 155.402344 250 154.59375 249.433594 153.757812 C 248.871094 152.917969 248.351562 152.054688 247.878906 151.160156 C 247.402344 150.265625 246.980469 149.351562 246.601562 148.414062 C 246.226562 147.476562 245.902344 146.519531 245.625 145.546875 C 245.351562 144.574219 245.128906 143.589844 244.957031 142.59375 C 244.789062 141.597656 244.671875 140.59375 244.609375 139.585938 C 244.542969 138.578125 244.535156 137.566406 244.578125 136.558594 C 244.621094 135.546875 244.71875 134.542969 244.867188 133.542969 C 245.015625 132.542969 245.21875 131.554688 245.472656 130.578125 C 245.730469 129.597656 246.035156 128.636719 246.390625 127.691406 C 246.75 126.746094 247.15625 125.820312 247.609375 124.917969 C 248.066406 124.015625 248.566406 123.140625 249.117188 122.289062 C 249.664062 121.441406 250.253906 120.625 250.890625 119.835938 C 251.527344 119.050781 252.199219 118.300781 252.914062 117.585938 C 253.628906 116.871094 254.378906 116.195312 255.167969 115.5625 C 255.953125 114.925781 256.769531 114.335938 257.621094 113.785156 C 258.46875 113.238281 259.34375 112.734375 260.246094 112.28125 C 261.148438 111.824219 262.074219 111.417969 263.019531 111.0625 C 263.964844 110.703125 264.925781 110.398438 265.90625 110.144531 C 266.882812 109.890625 267.871094 109.6875 268.871094 109.535156 C 269.871094 109.386719 270.875 109.289062 271.886719 109.246094 C 272.894531 109.203125 273.902344 109.214844 274.914062 109.277344 C 275.921875 109.339844 276.921875 109.457031 277.921875 109.628906 C 278.917969 109.796875 279.902344 110.019531 280.875 110.296875 C 281.847656 110.570312 282.800781 110.894531 283.738281 111.273438 C 284.675781 111.648438 285.59375 112.074219 286.484375 112.546875 C 287.378906 113.019531 288.246094 113.539062 289.082031 114.105469 C 289.921875 114.671875 290.726562 115.277344 291.5 115.929688 C 292.273438 116.582031 293.007812 117.269531 293.710938 118 C 294.410156 118.726562 295.070312 119.492188 295.6875 120.292969 L 314.933594 101.042969 C 315.269531 100.703125 315.527344 100.316406 315.707031 99.878906 C 315.890625 99.4375 315.980469 98.980469 315.980469 98.507812 C 315.980469 98.03125 315.890625 97.574219 315.707031 97.132812 C 315.527344 96.695312 315.269531 96.308594 314.933594 95.96875 L 272.082031 53.113281 C 271.746094 52.777344 271.359375 52.519531 270.917969 52.339844 C 270.480469 52.160156 270.023438 52.070312 269.546875 52.070312 C 269.074219 52.070312 268.617188 52.160156 268.175781 52.339844 C 267.738281 52.519531 267.351562 52.777344 267.011719 53.113281 L 188.449219 131.683594 C 188.117188 132.023438 187.859375 132.410156 187.675781 132.847656 C 187.496094 133.289062 187.40625 133.746094 187.40625 134.21875 C 187.40625 134.695312 187.496094 135.152344 187.675781 135.589844 C 187.859375 136.03125 188.117188 136.417969 188.449219 136.757812 Z M 231.300781 179.613281 " fill-opacity="1" fill-rule="nonzero"/><path fill="#232326" d="M 202.734375 186.757812 C 203.074219 187.085938 203.460938 187.34375 203.902344 187.523438 C 204.339844 187.703125 204.796875 187.792969 205.269531 187.792969 C 205.746094 187.792969 206.199219 187.703125 206.640625 187.523438 C 207.078125 187.34375 207.46875 187.085938 207.804688 186.757812 L 218.089844 176.46875 L 191.59375 149.96875 L 181.308594 160.257812 C 180.972656 160.59375 180.714844 160.980469 180.535156 161.421875 C 180.355469 161.859375 180.265625 162.316406 180.265625 162.792969 C 180.265625 163.265625 180.355469 163.722656 180.535156 164.164062 C 180.714844 164.601562 180.972656 164.988281 181.308594 165.328125 Z M 202.734375 186.757812 " fill-opacity="1" fill-rule="nonzero"/><path fill="#232326" d="M 293.054688 48.496094 L 285.296875 56.257812 L 311.792969 82.757812 L 319.550781 74.996094 L 327.730469 83.171875 C 328.0625 83.511719 328.449219 83.777344 328.890625 83.960938 C 329.328125 84.144531 329.785156 84.238281 330.261719 84.242188 C 330.738281 84.246094 331.195312 84.15625 331.636719 83.972656 C 332.078125 83.792969 332.464844 83.53125 332.800781 83.195312 C 333.136719 82.859375 333.398438 82.472656 333.578125 82.03125 C 333.761719 81.589844 333.851562 81.132812 333.847656 80.65625 C 333.84375 80.179688 333.753906 79.722656 333.566406 79.28125 C 333.382812 78.84375 333.121094 78.457031 332.78125 78.125 L 322.117188 67.460938 C 322.101562 67.441406 322.09375 67.417969 322.078125 67.398438 L 300.652344 45.96875 C 300.632812 45.953125 300.605469 45.945312 300.589844 45.929688 L 289.925781 35.265625 C 289.59375 34.9375 289.207031 34.683594 288.769531 34.503906 C 288.332031 34.328125 287.878906 34.242188 287.410156 34.242188 C 286.9375 34.246094 286.484375 34.335938 286.050781 34.519531 C 285.617188 34.699219 285.234375 34.957031 284.898438 35.289062 C 284.566406 35.621094 284.308594 36.003906 284.128906 36.441406 C 283.949219 36.875 283.855469 37.328125 283.855469 37.796875 C 283.851562 38.269531 283.941406 38.722656 284.117188 39.160156 C 284.292969 39.59375 284.546875 39.980469 284.878906 40.316406 Z M 293.054688 48.496094 " fill-opacity="1" fill-rule="nonzero"/><path fill="#232326" d="M 276.691406 137.792969 C 276.691406 138.265625 276.597656 138.722656 276.417969 139.160156 C 276.238281 139.597656 275.980469 139.980469 275.644531 140.316406 C 275.308594 140.652344 274.921875 140.910156 274.484375 141.089844 C 274.046875 141.273438 273.59375 141.363281 273.117188 141.363281 C 272.644531 141.363281 272.191406 141.273438 271.753906 141.089844 C 271.316406 140.910156 270.929688 140.652344 270.59375 140.316406 C 270.257812 139.980469 270 139.597656 269.820312 139.160156 C 269.636719 138.722656 269.546875 138.265625 269.546875 137.792969 C 269.546875 137.316406 269.636719 136.863281 269.820312 136.425781 C 270 135.988281 270.257812 135.601562 270.59375 135.265625 C 270.929688 134.929688 271.316406 134.671875 271.753906 134.492188 C 272.191406 134.3125 272.644531 134.21875 273.117188 134.21875 C 273.59375 134.21875 274.046875 134.3125 274.484375 134.492188 C 274.921875 134.671875 275.308594 134.929688 275.644531 135.265625 C 275.980469 135.601562 276.238281 135.988281 276.417969 136.425781 C 276.597656 136.863281 276.691406 137.316406 276.691406 137.792969 Z M 276.691406 137.792969 " fill-opacity="1" fill-rule="nonzero"/><path fill="#232326" d="M 294.542969 137.792969 C 294.542969 137.089844 294.511719 136.390625 294.441406 135.691406 C 294.371094 134.992188 294.269531 134.300781 294.132812 133.609375 C 293.996094 132.921875 293.824219 132.242188 293.621094 131.570312 C 293.417969 130.898438 293.183594 130.238281 292.914062 129.589844 C 292.644531 128.941406 292.34375 128.308594 292.015625 127.691406 C 291.683594 127.070312 291.324219 126.46875 290.933594 125.886719 C 290.542969 125.304688 290.125 124.738281 289.679688 124.199219 C 289.234375 123.65625 288.765625 123.136719 288.269531 122.640625 C 287.773438 122.144531 287.253906 121.671875 286.710938 121.226562 C 286.167969 120.78125 285.605469 120.363281 285.023438 119.972656 C 284.4375 119.585938 283.835938 119.222656 283.21875 118.894531 C 282.601562 118.5625 281.964844 118.261719 281.316406 117.996094 C 280.667969 117.726562 280.011719 117.488281 279.339844 117.285156 C 278.667969 117.082031 277.988281 116.910156 277.300781 116.773438 C 276.609375 116.636719 275.917969 116.535156 275.21875 116.464844 C 274.519531 116.398438 273.820312 116.363281 273.117188 116.363281 C 272.417969 116.363281 271.71875 116.398438 271.019531 116.464844 C 270.320312 116.535156 269.628906 116.636719 268.9375 116.773438 C 268.25 116.910156 267.570312 117.082031 266.898438 117.285156 C 266.226562 117.488281 265.566406 117.726562 264.917969 117.996094 C 264.269531 118.261719 263.636719 118.5625 263.019531 118.894531 C 262.398438 119.222656 261.796875 119.585938 261.214844 119.972656 C 260.632812 120.363281 260.070312 120.78125 259.527344 121.226562 C 258.984375 121.671875 258.464844 122.144531 257.96875 122.640625 C 257.472656 123.136719 257 123.65625 256.554688 124.199219 C 256.109375 124.738281 255.695312 125.304688 255.304688 125.886719 C 254.914062 126.46875 254.554688 127.070312 254.222656 127.691406 C 253.890625 128.308594 253.59375 128.941406 253.324219 129.589844 C 253.054688 130.238281 252.820312 130.898438 252.617188 131.570312 C 252.410156 132.242188 252.242188 132.921875 252.105469 133.609375 C 251.96875 134.300781 251.863281 134.992188 251.796875 135.691406 C 251.726562 136.390625 251.691406 137.089844 251.691406 137.792969 C 251.691406 138.492188 251.726562 139.195312 251.796875 139.890625 C 251.863281 140.589844 251.96875 141.285156 252.105469 141.972656 C 252.242188 142.660156 252.410156 143.339844 252.617188 144.011719 C 252.820312 144.683594 253.054688 145.34375 253.324219 145.992188 C 253.59375 146.640625 253.890625 147.273438 254.222656 147.894531 C 254.554688 148.511719 254.914062 149.113281 255.304688 149.695312 C 255.695312 150.28125 256.109375 150.84375 256.554688 151.386719 C 257 151.929688 257.472656 152.449219 257.96875 152.945312 C 258.464844 153.441406 258.984375 153.910156 259.527344 154.355469 C 260.070312 154.800781 260.632812 155.21875 261.214844 155.609375 C 261.796875 156 262.398438 156.359375 263.019531 156.691406 C 263.636719 157.019531 264.269531 157.320312 264.917969 157.589844 C 265.566406 157.859375 266.226562 158.09375 266.898438 158.296875 C 267.570312 158.5 268.25 158.671875 268.9375 158.808594 C 269.628906 158.945312 270.320312 159.046875 271.019531 159.117188 C 271.71875 159.1875 272.417969 159.21875 273.117188 159.21875 C 273.820312 159.21875 274.519531 159.183594 275.21875 159.117188 C 275.917969 159.046875 276.609375 158.941406 277.296875 158.804688 C 277.984375 158.667969 278.664062 158.496094 279.335938 158.292969 C 280.007812 158.089844 280.667969 157.851562 281.316406 157.585938 C 281.964844 157.316406 282.597656 157.015625 283.214844 156.683594 C 283.835938 156.355469 284.433594 155.992188 285.019531 155.605469 C 285.601562 155.214844 286.164062 154.796875 286.707031 154.351562 C 287.25 153.90625 287.769531 153.433594 288.265625 152.9375 C 288.761719 152.441406 289.230469 151.921875 289.675781 151.382812 C 290.121094 150.839844 290.539062 150.277344 290.929688 149.691406 C 291.320312 149.109375 291.679688 148.507812 292.011719 147.890625 C 292.339844 147.269531 292.640625 146.636719 292.910156 145.988281 C 293.179688 145.339844 293.414062 144.679688 293.617188 144.011719 C 293.824219 143.339844 293.992188 142.660156 294.128906 141.972656 C 294.269531 141.28125 294.371094 140.589844 294.441406 139.890625 C 294.507812 139.191406 294.542969 138.492188 294.542969 137.792969 Z M 262.40625 137.792969 C 262.40625 137.089844 262.472656 136.390625 262.613281 135.703125 C 262.75 135.011719 262.953125 134.339844 263.222656 133.691406 C 263.492188 133.042969 263.820312 132.425781 264.210938 131.839844 C 264.601562 131.253906 265.046875 130.714844 265.542969 130.214844 C 266.042969 129.71875 266.582031 129.273438 267.167969 128.882812 C 267.753906 128.492188 268.371094 128.164062 269.019531 127.894531 C 269.667969 127.625 270.339844 127.421875 271.027344 127.28125 C 271.71875 127.144531 272.414062 127.078125 273.117188 127.078125 C 273.824219 127.078125 274.519531 127.144531 275.207031 127.28125 C 275.898438 127.421875 276.570312 127.625 277.21875 127.894531 C 277.867188 128.164062 278.484375 128.492188 279.070312 128.882812 C 279.65625 129.273438 280.195312 129.71875 280.695312 130.214844 C 281.191406 130.714844 281.636719 131.253906 282.027344 131.839844 C 282.417969 132.425781 282.746094 133.042969 283.015625 133.691406 C 283.285156 134.339844 283.488281 135.011719 283.625 135.703125 C 283.761719 136.390625 283.832031 137.089844 283.832031 137.792969 C 283.832031 138.496094 283.761719 139.191406 283.625 139.882812 C 283.488281 140.570312 283.285156 141.242188 283.015625 141.890625 C 282.746094 142.542969 282.417969 143.160156 282.027344 143.746094 C 281.636719 144.328125 281.191406 144.871094 280.695312 145.367188 C 280.195312 145.863281 279.65625 146.308594 279.070312 146.699219 C 278.484375 147.089844 277.867188 147.421875 277.21875 147.691406 C 276.570312 147.960938 275.898438 148.164062 275.207031 148.300781 C 274.519531 148.4375 273.824219 148.507812 273.117188 148.507812 C 272.414062 148.503906 271.71875 148.4375 271.03125 148.296875 C 270.339844 148.160156 269.671875 147.957031 269.019531 147.6875 C 268.371094 147.417969 267.753906 147.085938 267.171875 146.695312 C 266.585938 146.304688 266.042969 145.863281 265.546875 145.363281 C 265.050781 144.867188 264.605469 144.324219 264.214844 143.742188 C 263.824219 143.15625 263.496094 142.539062 263.226562 141.890625 C 262.957031 141.242188 262.75 140.570312 262.613281 139.882812 C 262.476562 139.191406 262.40625 138.496094 262.40625 137.792969 Z M 262.40625 137.792969 " fill-opacity="1" fill-rule="nonzero"/><path fill="#232326" d="M 283.832031 277.078125 C 283.832031 277.550781 283.742188 278.007812 283.558594 278.445312 C 283.378906 278.882812 283.121094 279.269531 282.785156 279.601562 C 282.449219 279.9375 282.066406 280.195312 281.628906 280.375 C 281.191406 280.558594 280.734375 280.648438 280.261719 280.648438 C 279.789062 280.648438 279.332031 280.558594 278.894531 280.375 C 278.457031 280.195312 278.070312 279.9375 277.734375 279.601562 C 277.402344 279.269531 277.144531 278.882812 276.960938 278.445312 C 276.78125 278.007812 276.691406 277.550781 276.691406 277.078125 C 276.691406 276.605469 276.78125 276.148438 276.960938 275.710938 C 277.144531 275.273438 277.402344 274.886719 277.734375 274.550781 C 278.070312 274.21875 278.457031 273.957031 278.894531 273.777344 C 279.332031 273.597656 279.789062 273.507812 280.261719 273.507812 C 280.734375 273.507812 281.191406 273.597656 281.628906 273.777344 C 282.066406 273.957031 282.449219 274.21875 282.785156 274.550781 C 283.121094 274.886719 283.378906 275.273438 283.558594 275.710938 C 283.742188 276.148438 283.832031 276.605469 283.832031 277.078125 Z M 283.832031 277.078125 " fill-opacity="1" fill-rule="nonzero"/><path fill="#232326" d="M 301.6875 277.078125 C 301.6875 275.761719 301.570312 274.457031 301.332031 273.164062 C 301.09375 271.871094 300.738281 270.613281 300.269531 269.386719 C 299.800781 268.15625 299.222656 266.984375 298.535156 265.863281 C 297.847656 264.738281 297.066406 263.691406 296.1875 262.714844 C 295.304688 261.738281 294.34375 260.847656 293.300781 260.046875 C 292.257812 259.246094 291.152344 258.550781 289.980469 257.953125 C 288.808594 257.355469 287.59375 256.871094 286.332031 256.5 C 285.070312 256.125 283.789062 255.871094 282.480469 255.738281 C 281.171875 255.601562 279.863281 255.585938 278.554688 255.6875 C 277.242188 255.792969 275.953125 256.015625 274.683594 256.359375 C 273.414062 256.703125 272.1875 257.15625 271.003906 257.726562 C 269.816406 258.292969 268.691406 258.964844 267.632812 259.738281 C 266.570312 260.515625 265.585938 261.378906 264.683594 262.335938 C 263.78125 263.292969 262.972656 264.320312 262.261719 265.425781 C 261.546875 266.53125 260.941406 267.691406 260.441406 268.90625 C 259.941406 270.121094 259.558594 271.375 259.289062 272.660156 C 259.019531 273.949219 258.871094 275.25 258.839844 276.5625 C 258.8125 277.878906 258.902344 279.183594 259.113281 280.480469 C 259.320312 281.777344 259.648438 283.046875 260.09375 284.285156 C 260.535156 285.519531 261.089844 286.707031 261.75 287.84375 C 262.414062 288.980469 263.175781 290.046875 264.03125 291.039062 C 264.890625 292.035156 265.832031 292.945312 266.859375 293.769531 C 267.882812 294.589844 268.976562 295.3125 270.132812 295.933594 C 271.292969 296.554688 272.5 297.066406 273.75 297.464844 C 273.671875 297.441406 273.589844 297.425781 273.511719 297.398438 C 273.59375 297.425781 273.679688 297.441406 273.761719 297.46875 C 274.097656 297.578125 274.441406 297.664062 274.785156 297.757812 C 275.140625 297.855469 275.496094 297.957031 275.863281 298.035156 C 277.3125 298.347656 278.777344 298.503906 280.261719 298.507812 C 280.960938 298.503906 281.664062 298.472656 282.359375 298.402344 C 283.058594 298.332031 283.753906 298.230469 284.441406 298.09375 C 285.128906 297.957031 285.808594 297.785156 286.480469 297.582031 C 287.152344 297.378906 287.8125 297.140625 288.460938 296.875 C 289.109375 296.605469 289.742188 296.304688 290.359375 295.976562 C 290.980469 295.644531 291.582031 295.285156 292.164062 294.894531 C 292.746094 294.503906 293.308594 294.085938 293.851562 293.640625 C 294.394531 293.195312 294.914062 292.726562 295.410156 292.230469 C 295.90625 291.730469 296.378906 291.214844 296.824219 290.671875 C 297.265625 290.128906 297.683594 289.566406 298.074219 288.980469 C 298.464844 288.398438 298.824219 287.796875 299.15625 287.179688 C 299.488281 286.558594 299.785156 285.925781 300.054688 285.277344 C 300.324219 284.628906 300.558594 283.96875 300.761719 283.296875 C 300.96875 282.625 301.136719 281.945312 301.273438 281.257812 C 301.410156 280.570312 301.515625 279.875 301.582031 279.175781 C 301.652344 278.480469 301.6875 277.777344 301.6875 277.078125 Z M 275.007812 297.816406 C 275.28125 297.882812 275.546875 297.964844 275.820312 298.023438 C 275.546875 297.964844 275.28125 297.886719 275.007812 297.816406 Z M 280.261719 287.792969 C 279.558594 287.792969 278.859375 287.722656 278.171875 287.585938 C 277.480469 287.449219 276.8125 287.246094 276.160156 286.976562 C 275.511719 286.707031 274.894531 286.375 274.308594 285.984375 C 273.722656 285.59375 273.183594 285.152344 272.6875 284.652344 C 272.1875 284.15625 271.746094 283.613281 271.351562 283.03125 C 270.960938 282.445312 270.632812 281.828125 270.363281 281.175781 C 270.09375 280.527344 269.890625 279.859375 269.753906 279.167969 C 269.617188 278.476562 269.546875 277.78125 269.546875 277.078125 C 269.546875 276.375 269.617188 275.675781 269.753906 274.988281 C 269.890625 274.296875 270.09375 273.628906 270.363281 272.976562 C 270.632812 272.328125 270.960938 271.710938 271.351562 271.125 C 271.746094 270.539062 272.1875 270 272.6875 269.5 C 273.183594 269.003906 273.722656 268.558594 274.308594 268.167969 C 274.894531 267.777344 275.511719 267.449219 276.160156 267.179688 C 276.8125 266.910156 277.480469 266.707031 278.171875 266.570312 C 278.859375 266.433594 279.558594 266.363281 280.261719 266.363281 C 280.964844 266.363281 281.660156 266.433594 282.351562 266.570312 C 283.039062 266.707031 283.710938 266.910156 284.359375 267.179688 C 285.011719 267.449219 285.628906 267.777344 286.210938 268.167969 C 286.796875 268.558594 287.339844 269.003906 287.835938 269.5 C 288.332031 270 288.777344 270.539062 289.167969 271.125 C 289.558594 271.710938 289.890625 272.328125 290.160156 272.976562 C 290.425781 273.628906 290.628906 274.296875 290.769531 274.988281 C 290.90625 275.675781 290.972656 276.375 290.972656 277.078125 C 290.972656 277.78125 290.90625 278.476562 290.769531 279.167969 C 290.632812 279.859375 290.429688 280.527344 290.160156 281.179688 C 289.890625 281.828125 289.558594 282.445312 289.167969 283.03125 C 288.777344 283.617188 288.335938 284.15625 287.835938 284.65625 C 287.339844 285.152344 286.796875 285.597656 286.214844 285.988281 C 285.628906 286.378906 285.011719 286.707031 284.359375 286.976562 C 283.710938 287.246094 283.042969 287.449219 282.351562 287.585938 C 281.660156 287.722656 280.964844 287.792969 280.261719 287.792969 Z M 280.261719 287.792969 " fill-opacity="1" fill-rule="nonzero"/><path fill="#232326" d="M 299.507812 148.71875 C 299.027344 149.882812 298.472656 151.003906 297.84375 152.09375 C 297.214844 153.179688 296.515625 154.222656 295.75 155.21875 C 294.984375 156.214844 294.15625 157.15625 293.265625 158.042969 C 292.375 158.929688 291.429688 159.753906 290.429688 160.515625 C 289.429688 161.277344 288.386719 161.96875 287.296875 162.59375 C 286.207031 163.21875 285.078125 163.769531 283.914062 164.246094 C 282.753906 164.71875 281.5625 165.117188 280.347656 165.4375 C 279.132812 165.753906 277.902344 165.992188 276.652344 166.148438 C 278.519531 169.207031 280.191406 172.371094 281.671875 175.636719 C 283.152344 178.902344 284.425781 182.242188 285.496094 185.664062 C 286.566406 189.085938 287.425781 192.558594 288.070312 196.082031 C 288.714844 199.609375 289.144531 203.160156 289.355469 206.738281 C 289.566406 210.316406 289.558594 213.894531 289.332031 217.472656 C 289.105469 221.050781 288.660156 224.597656 288 228.121094 C 287.339844 231.644531 286.464844 235.113281 285.378906 238.53125 C 284.292969 241.945312 283.003906 245.285156 281.511719 248.542969 C 282.765625 248.597656 284.011719 248.738281 285.25 248.957031 C 286.484375 249.179688 287.703125 249.480469 288.898438 249.859375 C 290.09375 250.242188 291.261719 250.699219 292.398438 251.234375 C 293.535156 251.769531 294.632812 252.375 295.691406 253.054688 C 296.746094 253.734375 297.753906 254.480469 298.710938 255.292969 C 299.671875 256.101562 300.574219 256.972656 301.417969 257.90625 C 302.261719 258.835938 303.039062 259.816406 303.753906 260.851562 C 304.46875 261.882812 305.113281 262.960938 305.6875 264.078125 C 306.824219 261.828125 307.886719 259.542969 308.871094 257.226562 C 309.859375 254.90625 310.773438 252.558594 311.605469 250.179688 C 312.441406 247.800781 313.199219 245.398438 313.875 242.972656 C 314.554688 240.546875 315.152344 238.097656 315.671875 235.632812 C 316.1875 233.164062 316.625 230.683594 316.984375 228.191406 C 317.339844 225.695312 317.613281 223.191406 317.808594 220.679688 C 318 218.167969 318.113281 215.648438 318.140625 213.128906 C 318.171875 210.609375 318.117188 208.089844 317.984375 205.574219 C 317.847656 203.058594 317.632812 200.546875 317.335938 198.046875 C 317.035156 195.542969 316.65625 193.054688 316.195312 190.574219 C 315.734375 188.097656 315.195312 185.636719 314.574219 183.195312 C 313.953125 180.753906 313.25 178.332031 312.472656 175.9375 C 311.695312 173.539062 310.839844 171.171875 309.90625 168.828125 C 308.972656 166.488281 307.960938 164.179688 306.878906 161.90625 C 305.796875 159.628906 304.636719 157.390625 303.410156 155.191406 C 302.179688 152.992188 300.878906 150.835938 299.507812 148.71875 Z M 299.507812 148.71875 " fill-opacity="1" fill-rule="nonzero"/><path fill="#232326" d="M 251.691406 277.078125 C 251.6875 274.566406 252.015625 272.101562 252.667969 269.675781 C 253.324219 267.253906 254.285156 264.957031 255.550781 262.792969 L 205.054688 262.792969 C 203.730469 262.792969 202.425781 262.617188 201.148438 262.253906 C 199.871094 261.894531 198.667969 261.363281 197.539062 260.667969 C 196.410156 259.96875 195.398438 259.132812 194.503906 258.152344 C 193.609375 257.171875 192.863281 256.085938 192.273438 254.898438 L 190.878906 252.078125 L 158.953125 252.078125 L 166.738281 267.683594 C 167.621094 269.457031 168.621094 271.164062 169.738281 272.796875 C 170.855469 274.433594 172.082031 275.980469 173.414062 277.445312 C 174.75 278.910156 176.179688 280.273438 177.703125 281.539062 C 179.226562 282.804688 180.832031 283.957031 182.515625 284.996094 C 184.199219 286.039062 185.949219 286.957031 187.761719 287.753906 C 189.574219 288.550781 191.433594 289.21875 193.339844 289.757812 C 195.246094 290.296875 197.179688 290.699219 199.140625 290.96875 C 201.105469 291.238281 203.074219 291.367188 205.054688 291.363281 L 255.550781 291.363281 C 254.285156 289.195312 253.324219 286.902344 252.667969 284.476562 C 252.015625 282.054688 251.6875 279.585938 251.691406 277.078125 Z M 251.691406 277.078125 " fill-opacity="1" fill-rule="nonzero"/><path fill="#232326" d="M 265.976562 301.828125 L 265.976562 316.363281 L 294.542969 316.363281 L 294.542969 301.792969 C 293.464844 302.417969 292.347656 302.972656 291.195312 303.453125 C 290.042969 303.933594 288.867188 304.335938 287.660156 304.664062 C 286.453125 304.988281 285.234375 305.234375 283.996094 305.398438 C 282.757812 305.5625 281.515625 305.648438 280.265625 305.648438 C 279.015625 305.648438 277.773438 305.570312 276.535156 305.410156 C 275.296875 305.246094 274.074219 305.003906 272.867188 304.679688 C 271.664062 304.359375 270.484375 303.957031 269.328125 303.480469 C 268.175781 303.003906 267.058594 302.453125 265.976562 301.828125 Z M 265.976562 301.828125 " fill-opacity="1" fill-rule="nonzero"/><path fill="#232326" d="M 163.847656 208.503906 C 164.386719 208.910156 164.996094 209.144531 165.667969 209.207031 C 166.34375 209.265625 166.980469 209.144531 167.585938 208.84375 C 168.191406 208.542969 168.671875 208.101562 169.027344 207.527344 C 169.382812 206.953125 169.558594 206.324219 169.558594 205.648438 L 169.558594 134.21875 C 169.558594 133.167969 169.535156 132.117188 169.484375 131.066406 C 169.429688 130.015625 169.355469 128.964844 169.25 127.917969 C 169.148438 126.871094 169.019531 125.828125 168.863281 124.789062 C 168.710938 123.746094 168.53125 122.710938 168.324219 121.679688 C 168.121094 120.648438 167.890625 119.621094 167.632812 118.601562 C 167.378906 117.578125 167.097656 116.566406 166.792969 115.558594 C 166.488281 114.550781 166.15625 113.554688 165.804688 112.5625 C 165.449219 111.574219 165.070312 110.589844 164.667969 109.617188 C 164.265625 108.648438 163.839844 107.6875 163.390625 106.734375 C 162.9375 105.785156 162.464844 104.84375 161.96875 103.917969 C 161.472656 102.988281 160.957031 102.074219 160.414062 101.171875 C 159.875 100.269531 159.3125 99.378906 158.726562 98.503906 C 158.144531 97.628906 157.539062 96.769531 156.910156 95.925781 C 156.285156 95.082031 155.636719 94.25 154.96875 93.4375 C 154.300781 92.625 153.617188 91.828125 152.910156 91.046875 C 152.203125 90.269531 151.476562 89.507812 150.734375 88.761719 C 149.988281 88.019531 149.226562 87.292969 148.449219 86.585938 C 147.667969 85.882812 146.871094 85.195312 146.058594 84.527344 C 145.246094 83.859375 144.417969 83.210938 143.574219 82.585938 C 142.726562 81.957031 141.867188 81.351562 140.992188 80.769531 C 140.117188 80.183594 139.230469 79.621094 138.328125 79.082031 C 137.425781 78.539062 136.511719 78.019531 135.582031 77.523438 C 134.65625 77.027344 133.714844 76.554688 132.765625 76.105469 C 131.8125 75.65625 130.851562 75.230469 129.878906 74.828125 C 128.910156 74.425781 127.925781 74.046875 126.9375 73.691406 C 125.945312 73.339844 124.949219 73.007812 123.941406 72.703125 C 122.933594 72.398438 121.921875 72.117188 120.902344 71.859375 C 119.878906 71.605469 118.855469 71.375 117.824219 71.167969 C 116.789062 70.964844 115.753906 70.785156 114.714844 70.628906 C 113.671875 70.476562 112.628906 70.347656 111.582031 70.242188 C 110.535156 70.140625 109.488281 70.0625 108.4375 70.011719 C 107.386719 69.960938 106.335938 69.933594 105.28125 69.933594 C 104.230469 69.933594 103.179688 69.960938 102.128906 70.011719 C 101.078125 70.0625 100.027344 70.140625 98.980469 70.242188 C 97.933594 70.347656 96.890625 70.476562 95.851562 70.628906 C 94.808594 70.785156 93.773438 70.964844 92.742188 71.167969 C 91.710938 71.375 90.683594 71.605469 89.664062 71.859375 C 88.644531 72.117188 87.628906 72.398438 86.625 72.703125 C 85.617188 73.007812 84.617188 73.339844 83.628906 73.691406 C 82.636719 74.046875 81.65625 74.425781 80.683594 74.828125 C 79.710938 75.230469 78.75 75.65625 77.800781 76.105469 C 76.847656 76.554688 75.910156 77.027344 74.980469 77.523438 C 74.054688 78.019531 73.140625 78.539062 72.238281 79.082031 C 71.335938 79.621094 70.445312 80.183594 69.570312 80.769531 C 68.695312 81.351562 67.835938 81.957031 66.992188 82.585938 C 66.148438 83.210938 65.316406 83.859375 64.503906 84.527344 C 63.691406 85.195312 62.894531 85.882812 62.117188 86.585938 C 61.335938 87.292969 60.574219 88.019531 59.832031 88.761719 C 59.085938 89.507812 58.363281 90.269531 57.65625 91.046875 C 56.949219 91.828125 56.261719 92.625 55.59375 93.4375 C 54.925781 94.25 54.28125 95.082031 53.652344 95.925781 C 53.027344 96.769531 52.421875 97.628906 51.835938 98.503906 C 51.253906 99.378906 50.691406 100.269531 50.148438 101.171875 C 49.609375 102.074219 49.089844 102.988281 48.59375 103.917969 C 48.097656 104.84375 47.625 105.785156 47.175781 106.734375 C 46.726562 107.6875 46.300781 108.648438 45.898438 109.617188 C 45.496094 110.589844 45.117188 111.574219 44.761719 112.5625 C 44.40625 113.554688 44.078125 114.550781 43.773438 115.558594 C 43.46875 116.566406 43.1875 117.578125 42.929688 118.601562 C 42.675781 119.621094 42.445312 120.648438 42.238281 121.679688 C 42.035156 122.710938 41.855469 123.746094 41.699219 124.789062 C 41.546875 125.828125 41.417969 126.871094 41.3125 127.917969 C 41.210938 128.964844 41.132812 130.015625 41.082031 131.066406 C 41.03125 132.117188 41.003906 133.167969 41.003906 134.21875 C 41.003906 135.273438 41.03125 136.324219 41.082031 137.375 C 41.132812 138.425781 41.210938 139.472656 41.3125 140.519531 C 41.417969 141.566406 41.546875 142.613281 41.699219 143.652344 C 41.855469 144.695312 42.035156 145.730469 42.238281 146.761719 C 42.445312 147.792969 42.675781 148.820312 42.929688 149.839844 C 43.1875 150.859375 43.46875 151.875 43.773438 152.882812 C 44.078125 153.886719 44.40625 154.886719 44.761719 155.878906 C 45.117188 156.867188 45.496094 157.847656 45.898438 158.820312 C 46.300781 159.792969 46.726562 160.753906 47.175781 161.707031 C 47.625 162.65625 48.097656 163.597656 48.59375 164.523438 C 49.089844 165.453125 49.609375 166.367188 50.148438 167.269531 C 50.691406 168.171875 51.253906 169.0625 51.835938 169.933594 C 52.421875 170.808594 53.027344 171.671875 53.652344 172.515625 C 54.28125 173.359375 54.925781 174.1875 55.59375 175.003906 C 56.261719 175.816406 56.949219 176.613281 57.65625 177.390625 C 58.363281 178.171875 59.085938 178.933594 59.832031 179.675781 C 60.574219 180.421875 61.335938 181.144531 62.117188 181.851562 C 62.894531 182.558594 63.691406 183.246094 64.503906 183.914062 C 65.316406 184.582031 66.148438 185.226562 66.992188 185.855469 C 67.835938 186.480469 68.695312 187.085938 69.570312 187.671875 C 70.445312 188.257812 71.335938 188.820312 72.238281 189.359375 C 73.140625 189.902344 74.054688 190.417969 74.980469 190.914062 C 75.910156 191.410156 76.847656 191.882812 77.800781 192.332031 C 78.75 192.785156 79.710938 193.210938 80.683594 193.613281 C 81.65625 194.015625 82.636719 194.394531 83.628906 194.746094 C 84.617188 195.101562 85.617188 195.433594 86.625 195.738281 C 87.628906 196.042969 88.644531 196.324219 89.664062 196.578125 C 90.683594 196.835938 91.710938 197.066406 92.742188 197.269531 C 93.773438 197.476562 94.808594 197.65625 95.851562 197.808594 C 96.890625 197.964844 97.933594 198.09375 98.980469 198.195312 C 100.027344 198.300781 101.078125 198.375 102.128906 198.429688 C 103.179688 198.480469 104.230469 198.507812 105.28125 198.507812 L 150.515625 198.507812 Z M 148.132812 141.363281 L 148.132812 137.792969 L 140.8125 137.792969 C 140.460938 141.28125 139.617188 144.644531 138.269531 147.882812 C 136.925781 151.121094 135.140625 154.097656 132.914062 156.808594 L 138.109375 162 L 140.632812 159.476562 C 140.96875 159.140625 141.355469 158.882812 141.792969 158.699219 C 142.230469 158.519531 142.683594 158.429688 143.15625 158.429688 C 143.632812 158.429688 144.085938 158.519531 144.523438 158.699219 C 144.960938 158.882812 145.347656 159.140625 145.683594 159.476562 C 146.015625 159.808594 146.273438 160.195312 146.457031 160.632812 C 146.636719 161.070312 146.726562 161.527344 146.726562 162 C 146.726562 162.472656 146.636719 162.929688 146.457031 163.367188 C 146.273438 163.804688 146.015625 164.191406 145.683594 164.523438 L 135.582031 174.625 C 135.25 174.960938 134.863281 175.21875 134.425781 175.398438 C 133.988281 175.578125 133.53125 175.667969 133.058594 175.667969 C 132.585938 175.667969 132.132812 175.578125 131.695312 175.394531 C 131.257812 175.214844 130.871094 174.957031 130.539062 174.621094 C 130.203125 174.289062 129.945312 173.902344 129.761719 173.464844 C 129.582031 173.027344 129.492188 172.574219 129.492188 172.097656 C 129.492188 171.625 129.582031 171.171875 129.761719 170.734375 C 129.941406 170.296875 130.199219 169.910156 130.535156 169.574219 L 133.058594 167.050781 L 127.867188 161.855469 C 125.15625 164.082031 122.183594 165.867188 118.945312 167.210938 C 115.707031 168.558594 112.34375 169.40625 108.851562 169.753906 L 108.851562 177.078125 L 112.425781 177.078125 C 112.898438 177.078125 113.351562 177.167969 113.789062 177.347656 C 114.226562 177.53125 114.613281 177.789062 114.949219 178.125 C 115.285156 178.457031 115.542969 178.84375 115.722656 179.28125 C 115.90625 179.71875 115.996094 180.175781 115.996094 180.648438 C 115.996094 181.121094 115.90625 181.578125 115.722656 182.015625 C 115.542969 182.453125 115.285156 182.839844 114.949219 183.175781 C 114.613281 183.507812 114.226562 183.765625 113.789062 183.949219 C 113.351562 184.128906 112.898438 184.21875 112.425781 184.21875 L 98.140625 184.21875 C 97.667969 184.21875 97.210938 184.128906 96.773438 183.949219 C 96.335938 183.765625 95.949219 183.507812 95.617188 183.175781 C 95.28125 182.839844 95.023438 182.453125 94.839844 182.015625 C 94.660156 181.578125 94.570312 181.121094 94.570312 180.648438 C 94.570312 180.175781 94.660156 179.71875 94.839844 179.28125 C 95.023438 178.84375 95.28125 178.457031 95.617188 178.125 C 95.949219 177.789062 96.335938 177.53125 96.773438 177.347656 C 97.210938 177.167969 97.667969 177.078125 98.140625 177.078125 L 101.710938 177.078125 L 101.710938 169.753906 C 98.222656 169.40625 94.859375 168.558594 91.621094 167.210938 C 88.382812 165.867188 85.410156 164.082031 82.699219 161.855469 L 77.507812 167.050781 L 80.03125 169.574219 C 80.367188 169.910156 80.625 170.296875 80.804688 170.734375 C 80.984375 171.171875 81.078125 171.625 81.078125 172.101562 C 81.078125 172.574219 80.984375 173.027344 80.804688 173.464844 C 80.625 173.902344 80.367188 174.289062 80.03125 174.625 C 79.695312 174.960938 79.308594 175.21875 78.871094 175.398438 C 78.433594 175.582031 77.980469 175.671875 77.507812 175.671875 C 77.03125 175.671875 76.578125 175.582031 76.140625 175.398438 C 75.703125 175.21875 75.316406 174.960938 74.980469 174.625 L 64.882812 164.523438 C 64.546875 164.191406 64.289062 163.804688 64.105469 163.367188 C 63.925781 162.929688 63.835938 162.472656 63.835938 162 C 63.835938 161.527344 63.925781 161.070312 64.105469 160.632812 C 64.289062 160.195312 64.546875 159.808594 64.878906 159.472656 C 65.214844 159.136719 65.601562 158.878906 66.039062 158.699219 C 66.476562 158.515625 66.933594 158.425781 67.40625 158.425781 C 67.878906 158.425781 68.335938 158.519531 68.773438 158.699219 C 69.210938 158.882812 69.597656 159.140625 69.933594 159.476562 L 72.457031 162 L 77.648438 156.808594 C 75.421875 154.097656 73.640625 151.121094 72.292969 147.882812 C 70.949219 144.644531 70.101562 141.28125 69.753906 137.792969 L 62.429688 137.792969 L 62.429688 141.363281 C 62.429688 141.835938 62.339844 142.292969 62.160156 142.730469 C 61.976562 143.167969 61.71875 143.554688 61.382812 143.886719 C 61.050781 144.222656 60.664062 144.480469 60.226562 144.664062 C 59.789062 144.84375 59.332031 144.933594 58.859375 144.933594 C 58.386719 144.933594 57.929688 144.84375 57.492188 144.664062 C 57.054688 144.480469 56.667969 144.222656 56.335938 143.886719 C 56 143.554688 55.742188 143.167969 55.558594 142.730469 C 55.378906 142.292969 55.289062 141.835938 55.289062 141.363281 L 55.289062 127.078125 C 55.289062 126.605469 55.378906 126.148438 55.558594 125.710938 C 55.742188 125.273438 56 124.886719 56.335938 124.550781 C 56.667969 124.21875 57.054688 123.957031 57.492188 123.777344 C 57.929688 123.597656 58.386719 123.507812 58.859375 123.507812 C 59.332031 123.507812 59.789062 123.597656 60.226562 123.777344 C 60.664062 123.957031 61.050781 124.21875 61.382812 124.550781 C 61.71875 124.886719 61.976562 125.273438 62.160156 125.710938 C 62.339844 126.148438 62.429688 126.605469 62.429688 127.078125 L 62.429688 130.648438 L 69.753906 130.648438 C 70.101562 127.160156 70.949219 123.796875 72.292969 120.558594 C 73.640625 117.316406 75.425781 114.34375 77.648438 111.632812 L 72.457031 106.441406 L 69.933594 108.964844 C 69.597656 109.300781 69.210938 109.558594 68.773438 109.738281 C 68.335938 109.921875 67.878906 110.011719 67.40625 110.011719 C 66.933594 110.011719 66.476562 109.921875 66.039062 109.738281 C 65.601562 109.558594 65.21875 109.300781 64.882812 108.964844 C 64.546875 108.628906 64.289062 108.246094 64.109375 107.808594 C 63.925781 107.371094 63.835938 106.914062 63.835938 106.441406 C 63.835938 105.96875 63.925781 105.511719 64.109375 105.074219 C 64.289062 104.636719 64.546875 104.25 64.882812 103.914062 L 74.980469 93.816406 C 75.316406 93.480469 75.703125 93.222656 76.140625 93.039062 C 76.578125 92.859375 77.03125 92.769531 77.507812 92.769531 C 77.980469 92.769531 78.433594 92.859375 78.871094 93.039062 C 79.308594 93.222656 79.695312 93.480469 80.03125 93.816406 C 80.367188 94.148438 80.625 94.535156 80.804688 94.972656 C 80.988281 95.410156 81.078125 95.867188 81.078125 96.339844 C 81.078125 96.8125 80.988281 97.269531 80.804688 97.707031 C 80.625 98.144531 80.367188 98.53125 80.03125 98.863281 L 77.507812 101.390625 L 82.699219 106.582031 C 85.410156 104.359375 88.382812 102.574219 91.621094 101.226562 C 94.859375 99.882812 98.222656 99.035156 101.710938 98.6875 L 101.710938 91.363281 L 98.140625 91.363281 C 97.667969 91.363281 97.210938 91.273438 96.773438 91.089844 C 96.335938 90.910156 95.949219 90.652344 95.617188 90.316406 C 95.28125 89.980469 95.023438 89.597656 94.839844 89.160156 C 94.660156 88.722656 94.570312 88.265625 94.570312 87.792969 C 94.570312 87.316406 94.660156 86.863281 94.839844 86.425781 C 95.023438 85.988281 95.28125 85.601562 95.617188 85.265625 C 95.949219 84.929688 96.335938 84.671875 96.773438 84.492188 C 97.210938 84.3125 97.667969 84.21875 98.140625 84.21875 L 112.425781 84.21875 C 112.898438 84.21875 113.351562 84.3125 113.789062 84.492188 C 114.226562 84.671875 114.613281 84.929688 114.949219 85.265625 C 115.285156 85.601562 115.542969 85.988281 115.722656 86.425781 C 115.90625 86.863281 115.996094 87.316406 115.996094 87.792969 C 115.996094 88.265625 115.90625 88.722656 115.722656 89.160156 C 115.542969 89.597656 115.285156 89.980469 114.949219 90.316406 C 114.613281 90.652344 114.226562 90.910156 113.789062 91.089844 C 113.351562 91.273438 112.898438 91.363281 112.425781 91.363281 L 108.851562 91.363281 L 108.851562 98.6875 C 112.34375 99.035156 115.707031 99.882812 118.945312 101.226562 C 122.183594 102.574219 125.15625 104.359375 127.867188 106.582031 L 133.058594 101.390625 L 130.535156 98.867188 C 130.199219 98.53125 129.941406 98.144531 129.757812 97.707031 C 129.578125 97.269531 129.484375 96.8125 129.484375 96.339844 C 129.484375 95.867188 129.578125 95.410156 129.757812 94.972656 C 129.9375 94.535156 130.195312 94.148438 130.53125 93.8125 C 130.867188 93.476562 131.253906 93.21875 131.691406 93.039062 C 132.128906 92.859375 132.585938 92.765625 133.058594 92.765625 C 133.53125 92.765625 133.988281 92.859375 134.425781 93.039062 C 134.863281 93.222656 135.25 93.480469 135.582031 93.816406 L 145.683594 103.914062 C 146.015625 104.25 146.277344 104.636719 146.457031 105.074219 C 146.636719 105.511719 146.730469 105.96875 146.730469 106.441406 C 146.730469 106.914062 146.636719 107.371094 146.457031 107.808594 C 146.277344 108.246094 146.015625 108.632812 145.683594 108.964844 C 145.347656 109.300781 144.960938 109.558594 144.523438 109.738281 C 144.085938 109.921875 143.632812 110.011719 143.15625 110.011719 C 142.683594 110.011719 142.230469 109.921875 141.792969 109.738281 C 141.355469 109.558594 140.96875 109.300781 140.632812 108.964844 L 138.109375 106.441406 L 132.917969 111.632812 C 135.140625 114.34375 136.925781 117.316406 138.269531 120.558594 C 139.617188 123.796875 140.460938 127.160156 140.8125 130.648438 L 148.132812 130.648438 L 148.132812 127.078125 C 148.132812 126.605469 148.226562 126.148438 148.40625 125.710938 C 148.585938 125.273438 148.84375 124.886719 149.179688 124.550781 C 149.515625 124.21875 149.902344 123.957031 150.339844 123.777344 C 150.777344 123.597656 151.230469 123.507812 151.707031 123.507812 C 152.179688 123.507812 152.632812 123.597656 153.070312 123.777344 C 153.507812 123.957031 153.894531 124.21875 154.230469 124.550781 C 154.566406 124.886719 154.824219 125.273438 155.003906 125.710938 C 155.1875 126.148438 155.277344 126.605469 155.277344 127.078125 L 155.277344 141.363281 C 155.277344 141.835938 155.1875 142.292969 155.003906 142.730469 C 154.824219 143.167969 154.566406 143.554688 154.230469 143.886719 C 153.894531 144.222656 153.507812 144.480469 153.070312 144.664062 C 152.632812 144.84375 152.179688 144.933594 151.707031 144.933594 C 151.230469 144.933594 150.777344 144.84375 150.339844 144.664062 C 149.902344 144.480469 149.515625 144.222656 149.179688 143.886719 C 148.84375 143.554688 148.585938 143.167969 148.40625 142.730469 C 148.226562 142.292969 148.132812 141.835938 148.132812 141.363281 Z M 148.132812 141.363281 " fill-opacity="1" fill-rule="nonzero"/><path fill="#232326" d="M 125.660156 118.886719 C 125.328125 119.21875 124.941406 119.472656 124.503906 119.648438 C 124.066406 119.824219 123.613281 119.914062 123.144531 119.910156 C 122.671875 119.910156 122.21875 119.816406 121.785156 119.636719 C 121.351562 119.457031 120.96875 119.199219 120.636719 118.867188 C 120.300781 118.53125 120.046875 118.148438 119.863281 117.714844 C 119.683594 117.28125 119.589844 116.828125 119.589844 116.355469 C 119.585938 115.886719 119.675781 115.433594 119.851562 114.996094 C 120.03125 114.558594 120.28125 114.175781 120.613281 113.839844 L 122.773438 111.679688 C 121.53125 110.707031 120.222656 109.847656 118.839844 109.097656 C 117.457031 108.34375 116.019531 107.710938 114.53125 107.199219 C 113.042969 106.6875 111.523438 106.300781 109.972656 106.039062 C 108.417969 105.777344 106.855469 105.648438 105.28125 105.648438 C 103.707031 105.648438 102.144531 105.777344 100.59375 106.039062 C 99.039062 106.300781 97.519531 106.6875 96.03125 107.199219 C 94.546875 107.710938 93.109375 108.34375 91.726562 109.097656 C 90.34375 109.847656 89.03125 110.707031 87.792969 111.679688 L 89.953125 113.839844 C 90.289062 114.171875 90.550781 114.558594 90.734375 114.996094 C 90.917969 115.433594 91.011719 115.890625 91.015625 116.367188 C 91.015625 116.84375 90.925781 117.300781 90.746094 117.742188 C 90.5625 118.179688 90.304688 118.566406 89.96875 118.902344 C 89.632812 119.238281 89.242188 119.5 88.804688 119.679688 C 88.363281 119.863281 87.90625 119.953125 87.433594 119.949219 C 86.957031 119.949219 86.5 119.855469 86.0625 119.671875 C 85.625 119.488281 85.238281 119.226562 84.902344 118.886719 L 82.742188 116.730469 C 81.773438 117.96875 80.914062 119.28125 80.160156 120.664062 C 79.410156 122.046875 78.777344 123.480469 78.265625 124.96875 C 77.75 126.457031 77.363281 127.976562 77.105469 129.53125 C 76.84375 131.082031 76.714844 132.644531 76.714844 134.21875 C 76.714844 135.792969 76.84375 137.359375 77.105469 138.910156 C 77.363281 140.460938 77.75 141.984375 78.265625 143.472656 C 78.777344 144.960938 79.410156 146.394531 80.160156 147.777344 C 80.914062 149.160156 81.773438 150.472656 82.742188 151.710938 L 84.902344 149.550781 C 85.238281 149.222656 85.625 148.96875 86.0625 148.792969 C 86.496094 148.613281 86.949219 148.527344 87.421875 148.527344 C 87.890625 148.53125 88.34375 148.621094 88.777344 148.804688 C 89.214844 148.984375 89.597656 149.242188 89.929688 149.574219 C 90.261719 149.90625 90.519531 150.292969 90.699219 150.726562 C 90.882812 151.160156 90.972656 151.613281 90.976562 152.082031 C 90.976562 152.554688 90.890625 153.007812 90.710938 153.445312 C 90.535156 153.878906 90.28125 154.265625 89.953125 154.601562 L 87.792969 156.761719 C 89.03125 157.730469 90.34375 158.59375 91.726562 159.34375 C 93.109375 160.097656 94.542969 160.730469 96.03125 161.242188 C 97.519531 161.753906 99.039062 162.140625 100.59375 162.402344 C 102.144531 162.660156 103.707031 162.792969 105.28125 162.792969 C 106.855469 162.792969 108.417969 162.660156 109.972656 162.402344 C 111.523438 162.140625 113.042969 161.753906 114.53125 161.242188 C 116.019531 160.730469 117.457031 160.097656 118.839844 159.34375 C 120.222656 158.59375 121.53125 157.730469 122.773438 156.761719 L 120.613281 154.601562 C 120.28125 154.265625 120.027344 153.878906 119.851562 153.445312 C 119.675781 153.007812 119.585938 152.554688 119.589844 152.082031 C 119.589844 151.613281 119.683594 151.160156 119.863281 150.726562 C 120.046875 150.292969 120.300781 149.90625 120.636719 149.574219 C 120.96875 149.242188 121.351562 148.984375 121.785156 148.804688 C 122.21875 148.621094 122.671875 148.53125 123.144531 148.527344 C 123.613281 148.527344 124.066406 148.613281 124.503906 148.792969 C 124.941406 148.96875 125.328125 149.222656 125.660156 149.550781 L 127.820312 151.710938 C 128.792969 150.472656 129.652344 149.160156 130.402344 147.777344 C 131.15625 146.394531 131.789062 144.960938 132.300781 143.472656 C 132.8125 141.984375 133.199219 140.460938 133.460938 138.910156 C 133.71875 137.359375 133.851562 135.792969 133.851562 134.21875 C 133.851562 132.644531 133.71875 131.082031 133.460938 129.53125 C 133.199219 127.976562 132.8125 126.457031 132.300781 124.96875 C 131.789062 123.480469 131.15625 122.046875 130.402344 120.664062 C 129.652344 119.28125 128.792969 117.96875 127.820312 116.730469 Z M 105.28125 112.792969 C 105.757812 112.792969 106.210938 112.882812 106.648438 113.0625 C 107.085938 113.246094 107.472656 113.503906 107.808594 113.835938 C 108.140625 114.171875 108.398438 114.558594 108.582031 114.996094 C 108.761719 115.433594 108.851562 115.890625 108.851562 116.363281 C 108.851562 116.835938 108.761719 117.292969 108.582031 117.730469 C 108.398438 118.167969 108.140625 118.554688 107.808594 118.886719 C 107.472656 119.222656 107.085938 119.480469 106.648438 119.664062 C 106.210938 119.84375 105.757812 119.933594 105.28125 119.933594 C 104.808594 119.933594 104.351562 119.84375 103.914062 119.664062 C 103.476562 119.480469 103.09375 119.222656 102.757812 118.886719 C 102.421875 118.554688 102.164062 118.167969 101.984375 117.730469 C 101.800781 117.292969 101.710938 116.835938 101.710938 116.363281 C 101.710938 115.890625 101.800781 115.433594 101.984375 114.996094 C 102.164062 114.558594 102.421875 114.171875 102.757812 113.835938 C 103.09375 113.503906 103.476562 113.246094 103.914062 113.0625 C 104.351562 112.882812 104.808594 112.792969 105.28125 112.792969 Z M 91 137.792969 C 90.523438 137.792969 90.070312 137.699219 89.632812 137.519531 C 89.195312 137.339844 88.808594 137.082031 88.472656 136.746094 C 88.136719 136.410156 87.878906 136.023438 87.699219 135.585938 C 87.519531 135.148438 87.425781 134.695312 87.425781 134.21875 C 87.425781 133.746094 87.519531 133.289062 87.699219 132.851562 C 87.878906 132.414062 88.136719 132.03125 88.472656 131.695312 C 88.808594 131.359375 89.195312 131.101562 89.632812 130.921875 C 90.070312 130.738281 90.523438 130.648438 91 130.648438 C 91.472656 130.648438 91.925781 130.738281 92.363281 130.921875 C 92.800781 131.101562 93.1875 131.359375 93.523438 131.695312 C 93.859375 132.03125 94.117188 132.414062 94.296875 132.851562 C 94.480469 133.289062 94.570312 133.746094 94.570312 134.21875 C 94.570312 134.695312 94.480469 135.148438 94.296875 135.585938 C 94.117188 136.023438 93.859375 136.410156 93.523438 136.746094 C 93.1875 137.082031 92.800781 137.339844 92.363281 137.519531 C 91.925781 137.699219 91.472656 137.792969 91 137.792969 Z M 98.140625 155.648438 C 97.667969 155.648438 97.210938 155.558594 96.773438 155.375 C 96.335938 155.195312 95.949219 154.9375 95.617188 154.601562 C 95.28125 154.269531 95.023438 153.882812 94.839844 153.445312 C 94.660156 153.007812 94.570312 152.550781 94.570312 152.078125 C 94.570312 151.605469 94.660156 151.148438 94.839844 150.710938 C 95.023438 150.273438 95.28125 149.886719 95.617188 149.550781 C 95.949219 149.21875 96.335938 148.957031 96.773438 148.777344 C 97.210938 148.597656 97.667969 148.507812 98.140625 148.507812 C 98.613281 148.507812 99.070312 148.597656 99.507812 148.777344 C 99.945312 148.957031 100.332031 149.21875 100.664062 149.550781 C 101 149.886719 101.257812 150.273438 101.441406 150.710938 C 101.621094 151.148438 101.710938 151.605469 101.710938 152.078125 C 101.710938 152.550781 101.621094 153.007812 101.441406 153.445312 C 101.257812 153.882812 101 154.269531 100.664062 154.601562 C 100.332031 154.9375 99.945312 155.195312 99.507812 155.375 C 99.070312 155.558594 98.613281 155.648438 98.140625 155.648438 Z M 105.28125 137.792969 C 104.808594 137.792969 104.351562 137.699219 103.914062 137.519531 C 103.476562 137.339844 103.09375 137.082031 102.757812 136.746094 C 102.421875 136.410156 102.164062 136.023438 101.984375 135.585938 C 101.800781 135.148438 101.710938 134.695312 101.710938 134.21875 C 101.710938 133.746094 101.800781 133.289062 101.984375 132.851562 C 102.164062 132.414062 102.421875 132.03125 102.757812 131.695312 C 103.09375 131.359375 103.476562 131.101562 103.914062 130.921875 C 104.351562 130.738281 104.808594 130.648438 105.28125 130.648438 C 105.757812 130.648438 106.210938 130.738281 106.648438 130.921875 C 107.085938 131.101562 107.472656 131.359375 107.808594 131.695312 C 108.140625 132.03125 108.398438 132.414062 108.582031 132.851562 C 108.761719 133.289062 108.851562 133.746094 108.851562 134.21875 C 108.851562 134.695312 108.761719 135.148438 108.582031 135.585938 C 108.398438 136.023438 108.140625 136.410156 107.808594 136.746094 C 107.472656 137.082031 107.085938 137.339844 106.648438 137.519531 C 106.210938 137.699219 105.757812 137.792969 105.28125 137.792969 Z M 112.425781 148.507812 C 111.949219 148.507812 111.496094 148.414062 111.058594 148.234375 C 110.621094 148.054688 110.234375 147.792969 109.898438 147.460938 C 109.566406 147.125 109.304688 146.738281 109.125 146.300781 C 108.945312 145.863281 108.851562 145.40625 108.851562 144.933594 C 108.851562 144.460938 108.945312 144.003906 109.125 143.566406 C 109.304688 143.128906 109.566406 142.742188 109.898438 142.410156 C 110.234375 142.074219 110.621094 141.816406 111.058594 141.636719 C 111.496094 141.453125 111.949219 141.363281 112.425781 141.363281 C 112.898438 141.363281 113.351562 141.453125 113.789062 141.636719 C 114.226562 141.816406 114.613281 142.074219 114.949219 142.410156 C 115.285156 142.742188 115.542969 143.128906 115.722656 143.566406 C 115.90625 144.003906 115.996094 144.460938 115.996094 144.933594 C 115.996094 145.40625 115.90625 145.863281 115.722656 146.300781 C 115.542969 146.738281 115.285156 147.125 114.949219 147.460938 C 114.613281 147.792969 114.226562 148.054688 113.789062 148.234375 C 113.351562 148.414062 112.898438 148.507812 112.425781 148.507812 Z M 119.566406 134.21875 C 119.09375 134.21875 118.636719 134.128906 118.199219 133.949219 C 117.761719 133.765625 117.375 133.507812 117.042969 133.175781 C 116.707031 132.839844 116.449219 132.453125 116.265625 132.015625 C 116.085938 131.578125 115.996094 131.121094 115.996094 130.648438 C 115.996094 130.175781 116.085938 129.71875 116.265625 129.28125 C 116.449219 128.84375 116.707031 128.457031 117.042969 128.125 C 117.375 127.789062 117.761719 127.53125 118.199219 127.347656 C 118.636719 127.167969 119.09375 127.078125 119.566406 127.078125 C 120.039062 127.078125 120.496094 127.167969 120.933594 127.347656 C 121.371094 127.53125 121.757812 127.789062 122.089844 128.125 C 122.425781 128.457031 122.683594 128.84375 122.867188 129.28125 C 123.046875 129.71875 123.136719 130.175781 123.136719 130.648438 C 123.136719 131.121094 123.046875 131.578125 122.867188 132.015625 C 122.683594 132.453125 122.425781 132.839844 122.089844 133.175781 C 121.757812 133.507812 121.371094 133.765625 120.933594 133.949219 C 120.496094 134.128906 120.039062 134.21875 119.566406 134.21875 Z M 119.566406 134.21875 " fill-opacity="1" fill-rule="nonzero"/><g clip-path="url(#a8eea6f576)"><path fill="#232326" d="M 319.542969 323.507812 L 240.980469 323.507812 C 240.042969 323.507812 239.113281 323.597656 238.195312 323.78125 C 237.273438 323.964844 236.378906 324.234375 235.515625 324.59375 C 234.648438 324.953125 233.824219 325.390625 233.042969 325.914062 C 232.265625 326.433594 231.542969 327.027344 230.878906 327.691406 C 230.214844 328.351562 229.625 329.074219 229.101562 329.855469 C 228.582031 330.636719 228.140625 331.457031 227.785156 332.324219 C 227.425781 333.191406 227.152344 334.085938 226.96875 335.003906 C 226.789062 335.925781 226.695312 336.855469 226.695312 337.792969 C 226.695312 338.265625 226.785156 338.722656 226.96875 339.160156 C 227.148438 339.597656 227.40625 339.980469 227.742188 340.316406 C 228.078125 340.652344 228.464844 340.910156 228.902344 341.089844 C 229.339844 341.273438 229.792969 341.363281 230.265625 341.363281 L 330.253906 341.363281 C 330.726562 341.363281 331.183594 341.273438 331.621094 341.089844 C 332.058594 340.910156 332.445312 340.652344 332.78125 340.316406 C 333.113281 339.980469 333.371094 339.597656 333.554688 339.160156 C 333.734375 338.722656 333.824219 338.265625 333.824219 337.792969 C 333.824219 336.855469 333.734375 335.925781 333.550781 335.003906 C 333.367188 334.085938 333.097656 333.191406 332.738281 332.324219 C 332.378906 331.457031 331.941406 330.636719 331.417969 329.855469 C 330.898438 329.074219 330.304688 328.351562 329.640625 327.691406 C 328.980469 327.027344 328.257812 326.433594 327.476562 325.914062 C 326.699219 325.390625 325.875 324.953125 325.007812 324.59375 C 324.140625 324.234375 323.25 323.964844 322.328125 323.78125 C 321.410156 323.597656 320.480469 323.507812 319.542969 323.507812 Z M 319.542969 323.507812 " fill-opacity="1" fill-rule="nonzero"/></g><path fill="#232326" d="M 230.265625 223.507812 C 230.265625 223.03125 230.175781 222.578125 229.996094 222.140625 C 229.8125 221.703125 229.554688 221.316406 229.222656 220.980469 C 228.886719 220.644531 228.5 220.386719 228.0625 220.207031 C 227.625 220.023438 227.167969 219.933594 226.695312 219.933594 L 119.566406 219.933594 C 119.09375 219.933594 118.636719 220.023438 118.199219 220.207031 C 117.761719 220.386719 117.375 220.644531 117.042969 220.980469 C 116.707031 221.316406 116.449219 221.703125 116.265625 222.140625 C 116.085938 222.578125 115.996094 223.03125 115.996094 223.507812 C 115.996094 224.207031 116.03125 224.90625 116.097656 225.605469 C 116.167969 226.304688 116.269531 227 116.40625 227.6875 C 116.542969 228.375 116.714844 229.054688 116.917969 229.726562 C 117.121094 230.398438 117.359375 231.058594 117.625 231.707031 C 117.894531 232.355469 118.195312 232.988281 118.523438 233.605469 C 118.855469 234.226562 119.214844 234.828125 119.605469 235.410156 C 119.996094 235.996094 120.414062 236.558594 120.859375 237.101562 C 121.304688 237.640625 121.773438 238.160156 122.269531 238.65625 C 122.765625 239.15625 123.285156 239.625 123.828125 240.070312 C 124.371094 240.515625 124.933594 240.933594 125.519531 241.324219 C 126.101562 241.714844 126.703125 242.074219 127.320312 242.402344 C 127.941406 242.734375 128.574219 243.035156 129.222656 243.304688 C 129.871094 243.570312 130.53125 243.808594 131.203125 244.011719 C 131.875 244.214844 132.554688 244.386719 133.242188 244.523438 C 133.929688 244.660156 134.621094 244.761719 135.320312 244.832031 C 136.019531 244.898438 136.71875 244.933594 137.421875 244.933594 L 208.839844 244.933594 C 209.542969 244.933594 210.242188 244.898438 210.941406 244.832031 C 211.640625 244.761719 212.332031 244.660156 213.019531 244.523438 C 213.710938 244.386719 214.390625 244.214844 215.0625 244.011719 C 215.730469 243.808594 216.390625 243.570312 217.039062 243.304688 C 217.6875 243.035156 218.324219 242.734375 218.941406 242.402344 C 219.558594 242.074219 220.160156 241.714844 220.746094 241.324219 C 221.328125 240.933594 221.890625 240.515625 222.433594 240.070312 C 222.976562 239.625 223.496094 239.15625 223.992188 238.65625 C 224.488281 238.160156 224.957031 237.640625 225.402344 237.101562 C 225.847656 236.558594 226.265625 235.996094 226.65625 235.410156 C 227.046875 234.828125 227.40625 234.226562 227.738281 233.605469 C 228.066406 232.988281 228.367188 232.355469 228.636719 231.707031 C 228.90625 231.058594 229.140625 230.398438 229.34375 229.726562 C 229.546875 229.054688 229.71875 228.375 229.855469 227.6875 C 229.992188 227 230.09375 226.304688 230.164062 225.605469 C 230.234375 224.90625 230.265625 224.207031 230.265625 223.507812 Z M 230.265625 223.507812 " fill-opacity="1" fill-rule="nonzero"/></svg>